<?xml version="1.0" encoding="UTF-8" standalone="no"?>
<!DOCTYPE svg PUBLIC "-//W3C//DTD SVG 1.1//EN" "http://www.w3.org/Graphics/SVG/1.1/DTD/svg11.dtd">
<svg width="100%" height="100%" viewBox="0 0 70 130" version="1.1" xmlns="http://www.w3.org/2000/svg" xmlns:xlink="http://www.w3.org/1999/xlink" xml:space="preserve" xmlns:serif="http://www.serif.com/" style="fill-rule:evenodd;clip-rule:evenodd;stroke-linecap:round;stroke-linejoin:round;stroke-miterlimit:1.5;">
    <g transform="matrix(1,0,0,1,-3559,-1248)">
        <g transform="matrix(1,0,0,1,-31.84,-579.293)">
            <g id="Weapon---Side-Cannon---Muzzle-Right" serif:id="Weapon - Side Cannon - Muzzle Right" transform="matrix(1,0,0,1.23229,0,-661.286)">
                <g transform="matrix(1,0,0,1,1189.18,0)">
                    <rect x="2405.9" y="2023.28" width="60.974" height="98.177" style="fill:rgb(167,167,167);stroke:black;stroke-width:7.43px;"/>
                </g>
                <g>
                    <g transform="matrix(1,0,0,1,1190.86,4.74385)">
                        <ellipse cx="2415.25" cy="2037.92" rx="0.557" ry="4.225" style="fill:rgb(167,167,167);stroke:black;stroke-width:7.43px;"/>
                    </g>
                    <g transform="matrix(1,0,0,1,1203.32,4.74385)">
                        <ellipse cx="2415.25" cy="2037.92" rx="0.557" ry="4.225" style="fill:rgb(167,167,167);stroke:black;stroke-width:7.43px;"/>
                    </g>
                    <g transform="matrix(1,0,0,1,1215.85,4.74385)">
                        <ellipse cx="2415.25" cy="2037.92" rx="0.557" ry="4.225" style="fill:rgb(167,167,167);stroke:black;stroke-width:7.43px;"/>
                    </g>
                    <g transform="matrix(1,0,0,1,1228.39,4.74385)">
                        <ellipse cx="2415.25" cy="2037.92" rx="0.557" ry="4.225" style="fill:rgb(167,167,167);stroke:black;stroke-width:7.43px;"/>
                    </g>
                </g>
            </g>
        </g>
    </g>
</svg>
