<?xml version="1.0" encoding="UTF-8" standalone="no"?>
<!DOCTYPE svg PUBLIC "-//W3C//DTD SVG 1.1//EN" "http://www.w3.org/Graphics/SVG/1.1/DTD/svg11.dtd">
<svg width="100%" height="100%" viewBox="0 0 4113 3771" version="1.1" xmlns="http://www.w3.org/2000/svg" xmlns:xlink="http://www.w3.org/1999/xlink" xml:space="preserve" xmlns:serif="http://www.serif.com/" style="fill-rule:evenodd;clip-rule:evenodd;stroke-linejoin:round;stroke-miterlimit:2;">
    <g transform="matrix(1,0,0,1,-960,-517)">
        <g id="Extras---Target" serif:id="Extras - Target">
            <g transform="matrix(1,0,0,1,43,0)">
                <rect x="917.173" y="1769.78" width="31.349" height="1265.61" style="fill:rgb(47,209,42);"/>
            </g>
            <g transform="matrix(1,0,0,1,4123.59,0)">
                <rect x="917.173" y="1769.78" width="31.349" height="1265.61" style="fill:rgb(47,209,42);"/>
            </g>
            <g transform="matrix(5.61346e-17,0.916748,-1,6.12323e-17,5418.73,-323.036)">
                <rect x="917.173" y="1769.78" width="31.349" height="1265.61" style="fill:rgb(47,209,42);"/>
            </g>
            <g transform="matrix(5.61346e-17,0.916748,-1,6.12323e-17,5418.73,3417.84)">
                <rect x="917.173" y="1769.78" width="31.349" height="1265.61" style="fill:rgb(47,209,42);"/>
            </g>
            <g transform="matrix(0.707107,0.707107,-0.707107,0.707107,3431.52,385.045)">
                <path d="M1151.98,3719.72L1302.39,3969.89L1001.56,3969.89L1151.98,3719.72Z" style="fill:rgb(47,209,42);"/>
            </g>
            <g transform="matrix(-0.707107,0.707107,-0.707107,-0.707107,5060.67,2806.56)">
                <path d="M1151.98,3719.72L1302.39,3969.89L1001.56,3969.89L1151.98,3719.72Z" style="fill:rgb(47,209,42);"/>
            </g>
            <g transform="matrix(-0.707107,-0.707107,0.707107,-0.707107,2595.73,4435.7)">
                <path d="M1151.98,3719.72L1302.39,3969.89L1001.56,3969.89L1151.98,3719.72Z" style="fill:rgb(47,209,42);"/>
            </g>
            <g transform="matrix(0.707107,-0.707107,0.707107,0.707107,966.256,2014.19)">
                <path d="M1151.98,3719.72L1302.39,3969.89L1001.56,3969.89L1151.98,3719.72Z" style="fill:rgb(47,209,42);"/>
            </g>
        </g>
    </g>
</svg>
