<?xml version="1.0" encoding="UTF-8" standalone="no"?>
<!DOCTYPE svg PUBLIC "-//W3C//DTD SVG 1.1//EN" "http://www.w3.org/Graphics/SVG/1.1/DTD/svg11.dtd">
<svg width="100%" height="100%" viewBox="0 0 790 197" version="1.1" xmlns="http://www.w3.org/2000/svg" xmlns:xlink="http://www.w3.org/1999/xlink" xml:space="preserve" xmlns:serif="http://www.serif.com/" style="fill-rule:evenodd;clip-rule:evenodd;stroke-linecap:round;stroke-linejoin:round;stroke-miterlimit:1.5;">
    <g transform="matrix(1,0,0,1,-2607,-2911)">
        <g id="Upgrades---Engine-Upgrade" serif:id="Upgrades - Engine Upgrade" transform="matrix(1,0,0,1,-32.1465,-576.918)">
            <g transform="matrix(1.265,0,0,0.833247,-814.4,577.986)">
                <path d="M3353.26,3552.59C3353.26,3520.7 3336.2,3494.81 3315.2,3494.81L2769.84,3494.81C2748.84,3494.81 2731.78,3520.7 2731.78,3552.59L2731.78,3668.14C2731.78,3700.03 2748.84,3725.91 2769.84,3725.91L3315.2,3725.91C3336.2,3725.91 3353.26,3700.03 3353.26,3668.14L3353.26,3552.59Z" style="fill:rgb(34,34,34);stroke:black;stroke-width:3.11px;"/>
            </g>
            <g transform="matrix(1,0,0,1,48.3928,-3.32352)">
                <circle cx="2753.69" cy="3587.15" r="59.65" style="fill:rgb(255,139,0);stroke:black;stroke-width:3.33px;"/>
            </g>
            <g transform="matrix(1,0,0,1,206.492,-3.32352)">
                <circle cx="2753.69" cy="3587.15" r="59.65" style="fill:rgb(255,139,0);stroke:black;stroke-width:3.33px;"/>
            </g>
            <g transform="matrix(1,0,0,1,363.934,-3.32352)">
                <circle cx="2753.69" cy="3587.15" r="59.65" style="fill:rgb(255,139,0);stroke:black;stroke-width:3.33px;"/>
            </g>
            <g transform="matrix(1,0,0,1,518.838,-3.32352)">
                <circle cx="2753.69" cy="3587.15" r="59.65" style="fill:rgb(255,139,0);stroke:black;stroke-width:3.33px;"/>
            </g>
            <g transform="matrix(0.863889,0,0,1,418.02,0)">
                <rect x="2690.7" y="3567.74" width="679.843" height="30.892" style="fill:rgb(0,10,9);stroke:black;stroke-width:3.57px;"/>
            </g>
        </g>
    </g>
</svg>
