<?xml version="1.0" encoding="UTF-8" standalone="no"?>
<!DOCTYPE svg PUBLIC "-//W3C//DTD SVG 1.1//EN" "http://www.w3.org/Graphics/SVG/1.1/DTD/svg11.dtd">
<svg width="100%" height="100%" viewBox="0 0 478 249" version="1.1" xmlns="http://www.w3.org/2000/svg" xmlns:xlink="http://www.w3.org/1999/xlink" xml:space="preserve" xmlns:serif="http://www.serif.com/" style="fill-rule:evenodd;clip-rule:evenodd;stroke-linejoin:round;stroke-miterlimit:2;">
    <g transform="matrix(1,0,0,1,-3246,-1601)">
        <g transform="matrix(1,0,0,1,-32.1465,-576.918)">
            <g id="Monster---Suspension-Front-Right" serif:id="Monster - Suspension Front Right">
                <g transform="matrix(-1,0,0,1.94486,6527.4,-6485.1)">
                    <path d="M3164.63,4514.93C3164.63,4510.63 3157.83,4507.13 3149.46,4507.13L2797.98,4507.13C2789.61,4507.13 2782.81,4510.63 2782.81,4514.93L2782.81,4530.53C2782.81,4534.84 2789.61,4538.33 2797.98,4538.33L3149.46,4538.33C3157.83,4538.33 3164.63,4534.84 3164.63,4530.53L3164.63,4514.93Z" style="fill:rgb(136,136,136);"/>
                </g>
                <g transform="matrix(-1.23662,-0.331351,-0.258819,0.965926,8364.84,-1128.47)">
                    <path d="M3164.63,4514.93C3164.63,4510.63 3161.9,4507.13 3158.54,4507.13L2788.91,4507.13C2785.54,4507.13 2782.81,4510.63 2782.81,4514.93L2782.81,4530.53C2782.81,4534.84 2785.54,4538.33 2788.91,4538.33L3158.54,4538.33C3161.9,4538.33 3164.63,4534.84 3164.63,4530.53L3164.63,4514.93Z" style="fill:rgb(136,136,136);"/>
                </g>
                <g transform="matrix(-0.965926,0.258819,0.258819,0.965926,5270.42,-2775.09)">
                    <path d="M3164.63,4514.93C3164.63,4510.63 3161.13,4507.13 3156.83,4507.13L2790.61,4507.13C2786.31,4507.13 2782.81,4510.63 2782.81,4514.93L2782.81,4530.53C2782.81,4534.84 2786.31,4538.33 2790.61,4538.33L3156.83,4538.33C3161.13,4538.33 3164.63,4534.84 3164.63,4530.53L3164.63,4514.93Z" style="fill:rgb(136,136,136);"/>
                </g>
            </g>
        </g>
    </g>
</svg>
