<?xml version="1.0" encoding="UTF-8" standalone="no"?>
<!DOCTYPE svg PUBLIC "-//W3C//DTD SVG 1.1//EN" "http://www.w3.org/Graphics/SVG/1.1/DTD/svg11.dtd">
<svg width="100%" height="100%" viewBox="0 0 433 588" version="1.1" xmlns="http://www.w3.org/2000/svg" xmlns:xlink="http://www.w3.org/1999/xlink" xml:space="preserve" xmlns:serif="http://www.serif.com/" style="fill-rule:evenodd;clip-rule:evenodd;stroke-linejoin:round;stroke-miterlimit:2;">
    <g transform="matrix(1,0,0,1,-2282,-2813)">
        <g transform="matrix(1,0,0,1,1492.98,885.27)">
            <g id="Buggy---Wheel-Turning" serif:id="Buggy - Wheel Turning" transform="matrix(1,0,0,1,276.742,1120.71)">
                <g transform="matrix(1,0,0,1,-117.006,-1074.82)">
                    <path d="M1061.77,1990.37C1061.77,1930.82 1013.42,1882.47 953.866,1882.47L738.065,1882.47C678.513,1882.47 630.164,1930.82 630.164,1990.37L630.164,2361.33C630.164,2420.88 678.513,2469.23 738.065,2469.23L953.866,2469.23C1013.42,2469.23 1061.77,2420.88 1061.77,2361.33L1061.77,1990.37Z" style="fill:rgb(44,44,44);"/>
                </g>
                <g transform="matrix(1,0,0,1,0,-40)">
                    <g transform="matrix(0.684093,-0.285694,0.0178082,0.0426415,213.978,1519.65)">
                        <rect x="513.467" y="755.367" width="215.853" height="215.853"/>
                    </g>
                    <g transform="matrix(0.682288,0.280291,-0.0206039,0.0501543,391,1160.8)">
                        <rect x="513.467" y="755.367" width="215.853" height="215.853"/>
                    </g>
                    <g transform="matrix(0.786432,-0.328433,0.0178082,0.0426415,139.34,1467.83)">
                        <rect x="513.467" y="755.367" width="215.853" height="215.853"/>
                    </g>
                    <g transform="matrix(0.807137,0.331581,-0.0206039,0.0501543,326.894,1051.46)">
                        <rect x="513.467" y="755.367" width="215.853" height="215.853"/>
                    </g>
                    <g transform="matrix(0.786432,-0.328433,0.0178082,0.0426415,139.34,1385.15)">
                        <rect x="513.467" y="755.367" width="215.853" height="215.853"/>
                    </g>
                    <g transform="matrix(0.807137,0.331581,-0.0206039,0.0501543,326.894,968.788)">
                        <rect x="513.467" y="755.367" width="215.853" height="215.853"/>
                    </g>
                    <g transform="matrix(0.786432,-0.328433,0.0178082,0.0426415,139.34,1303.8)">
                        <rect x="513.467" y="755.367" width="215.853" height="215.853"/>
                    </g>
                    <g transform="matrix(0.807137,0.331581,-0.0206039,0.0501543,326.894,887.438)">
                        <rect x="513.467" y="755.367" width="215.853" height="215.853"/>
                    </g>
                    <g transform="matrix(0.786432,-0.328433,0.0178082,0.0426415,139.34,1221.67)">
                        <rect x="513.467" y="755.367" width="215.853" height="215.853"/>
                    </g>
                    <g transform="matrix(0.807137,0.331581,-0.0206039,0.0501543,326.894,805.304)">
                        <rect x="513.467" y="755.367" width="215.853" height="215.853"/>
                    </g>
                    <g transform="matrix(0.786432,-0.328433,0.0178082,0.0426415,139.34,1139.68)">
                        <rect x="513.467" y="755.367" width="215.853" height="215.853"/>
                    </g>
                    <g transform="matrix(0.807137,0.331581,-0.0206039,0.0501543,326.894,723.313)">
                        <rect x="513.467" y="755.367" width="215.853" height="215.853"/>
                    </g>
                    <g transform="matrix(0.679628,-0.283829,0.0178082,0.0426415,217.234,1023.38)">
                        <rect x="513.467" y="755.367" width="215.853" height="215.853"/>
                    </g>
                    <g transform="matrix(0.680893,0.279718,-0.0206039,0.0501543,391.716,666.177)">
                        <rect x="513.467" y="755.367" width="215.853" height="215.853"/>
                    </g>
                </g>
            </g>
        </g>
    </g>
</svg>
