<?xml version="1.0" encoding="UTF-8" standalone="no"?>
<!DOCTYPE svg PUBLIC "-//W3C//DTD SVG 1.1//EN" "http://www.w3.org/Graphics/SVG/1.1/DTD/svg11.dtd">
<svg width="100%" height="100%" viewBox="0 0 2129 2125" version="1.1" xmlns="http://www.w3.org/2000/svg" xmlns:xlink="http://www.w3.org/1999/xlink" xml:space="preserve" xmlns:serif="http://www.serif.com/" style="fill-rule:evenodd;clip-rule:evenodd;stroke-linejoin:round;stroke-miterlimit:2;">
    <g transform="matrix(1,0,0,1,-1927,-1357)">
        <g transform="matrix(1.03506,0,0,1.03514,1421.46,933.815)">
            <g id="UFO---Core---Light-Ring" serif:id="UFO - Core - Light Ring" transform="matrix(1.02067,0,0,1.01869,-31.3572,-26.8247)">
                <g id="UFO---Core---Light" serif:id="UFO - Core - Light" transform="matrix(1,0,0,1,-298.552,690.44)">
                    <circle cx="843.034" cy="744.681" r="34.788" style="fill:rgb(0,242,255);"/>
                </g>
                <g id="UFO---Core---Light1" serif:id="UFO - Core - Light" transform="matrix(1,0,0,1,1645.97,690.44)">
                    <circle cx="843.034" cy="744.681" r="34.788" style="fill:rgb(0,242,255);"/>
                </g>
                <g id="UFO---Core---Light2" serif:id="UFO - Core - Light" transform="matrix(0.965926,0.258819,-0.258819,0.965926,-43.9602,245.982)">
                    <circle cx="843.034" cy="744.681" r="34.788" style="fill:rgb(0,242,255);"/>
                </g>
                <g id="UFO---Core---Light3" serif:id="UFO - Core - Light" transform="matrix(0.965926,0.258819,-0.258819,0.965926,1834.3,749.261)">
                    <circle cx="843.034" cy="744.681" r="34.788" style="fill:rgb(0,242,255);"/>
                </g>
                <g id="UFO---Core---Light4" serif:id="UFO - Core - Light" transform="matrix(0.866025,0.5,-0.5,0.866025,316.991,-117.438)">
                    <circle cx="843.034" cy="744.681" r="34.788" style="fill:rgb(0,242,255);"/>
                </g>
                <g id="UFO---Core---Light5" serif:id="UFO - Core - Light" transform="matrix(0.866025,0.5,-0.5,0.866025,2001,854.822)">
                    <circle cx="843.034" cy="744.681" r="34.788" style="fill:rgb(0,242,255);"/>
                </g>
                <g id="UFO---Core---Light6" serif:id="UFO - Core - Light" transform="matrix(0.707107,0.707107,-0.707107,0.707107,759.704,-375.055)">
                    <circle cx="843.034" cy="744.681" r="34.788" style="fill:rgb(0,242,255);"/>
                </g>
                <g id="UFO---Core---Light7" serif:id="UFO - Core - Light" transform="matrix(0.707107,0.707107,-0.707107,0.707107,2134.69,999.93)">
                    <circle cx="843.034" cy="744.681" r="34.788" style="fill:rgb(0,242,255);"/>
                </g>
                <g id="UFO---Core---Light8" serif:id="UFO - Core - Light" transform="matrix(0.5,0.866025,-0.866025,0.5,1254.01,-509.31)">
                    <circle cx="843.034" cy="744.681" r="34.788" style="fill:rgb(0,242,255);"/>
                </g>
                <g id="UFO---Core---Light9" serif:id="UFO - Core - Light" transform="matrix(0.5,0.866025,-0.866025,0.5,2226.27,1174.7)">
                    <circle cx="843.034" cy="744.681" r="34.788" style="fill:rgb(0,242,255);"/>
                </g>
                <g id="UFO---Core---Light10" serif:id="UFO - Core - Light" transform="matrix(0.258819,0.965926,-0.965926,0.258819,1766.22,-511.056)">
                    <circle cx="843.034" cy="744.681" r="34.788" style="fill:rgb(0,242,255);"/>
                </g>
                <g id="UFO---Core---Light11" serif:id="UFO - Core - Light" transform="matrix(0.258819,0.965926,-0.965926,0.258819,2269.5,1367.21)">
                    <circle cx="843.034" cy="744.681" r="34.788" style="fill:rgb(0,242,255);"/>
                </g>
                <g id="UFO---Core---Light12" serif:id="UFO - Core - Light" transform="matrix(6.12323e-17,1,-1,6.12323e-17,2261.42,-380.173)">
                    <circle cx="843.034" cy="744.681" r="34.788" style="fill:rgb(0,242,255);"/>
                </g>
                <g id="UFO---Core---Light13" serif:id="UFO - Core - Light" transform="matrix(6.12323e-17,1,-1,6.12323e-17,2261.42,1564.35)">
                    <circle cx="843.034" cy="744.681" r="34.788" style="fill:rgb(0,242,255);"/>
                </g>
                <g id="UFO---Core---Light14" serif:id="UFO - Core - Light" transform="matrix(0.965926,-0.258819,0.258819,0.965926,-429.435,1185.65)">
                    <circle cx="843.034" cy="744.681" r="34.788" style="fill:rgb(0,242,255);"/>
                </g>
                <g id="UFO---Core---Light15" serif:id="UFO - Core - Light" transform="matrix(0.965926,-0.258819,0.258819,0.965926,1448.83,682.368)">
                    <circle cx="843.034" cy="744.681" r="34.788" style="fill:rgb(0,242,255);"/>
                </g>
                <g id="UFO---Core---Light16" serif:id="UFO - Core - Light" transform="matrix(0.866025,-0.5,0.5,0.866025,-427.69,1697.86)">
                    <circle cx="843.034" cy="744.681" r="34.788" style="fill:rgb(0,242,255);"/>
                </g>
                <g id="UFO---Core---Light17" serif:id="UFO - Core - Light" transform="matrix(0.866025,-0.5,0.5,0.866025,1256.32,725.595)">
                    <circle cx="843.034" cy="744.681" r="34.788" style="fill:rgb(0,242,255);"/>
                </g>
                <g id="UFO---Core---Light18" serif:id="UFO - Core - Light" transform="matrix(0.707107,-0.707107,0.707107,0.707107,-293.434,2192.16)">
                    <circle cx="843.034" cy="744.681" r="34.788" style="fill:rgb(0,242,255);"/>
                </g>
                <g id="UFO---Core---Light19" serif:id="UFO - Core - Light" transform="matrix(0.707107,-0.707107,0.707107,0.707107,1081.55,817.175)">
                    <circle cx="843.034" cy="744.681" r="34.788" style="fill:rgb(0,242,255);"/>
                </g>
                <g id="UFO---Core---Light20" serif:id="UFO - Core - Light" transform="matrix(0.5,-0.866025,0.866025,0.5,-35.818,2634.87)">
                    <circle cx="843.034" cy="744.681" r="34.788" style="fill:rgb(0,242,255);"/>
                </g>
                <g id="UFO---Core---Light21" serif:id="UFO - Core - Light" transform="matrix(0.5,-0.866025,0.866025,0.5,936.443,950.867)">
                    <circle cx="843.034" cy="744.681" r="34.788" style="fill:rgb(0,242,255);"/>
                </g>
                <g id="UFO---Core---Light22" serif:id="UFO - Core - Light" transform="matrix(0.258819,-0.965926,0.965926,0.258819,327.603,2995.82)">
                    <circle cx="843.034" cy="744.681" r="34.788" style="fill:rgb(0,242,255);"/>
                </g>
                <g id="UFO---Core---Light23" serif:id="UFO - Core - Light" transform="matrix(0.258819,-0.965926,0.965926,0.258819,830.882,1117.56)">
                    <circle cx="843.034" cy="744.681" r="34.788" style="fill:rgb(0,242,255);"/>
                </g>
            </g>
        </g>
    </g>
</svg>
