<?xml version="1.0" encoding="UTF-8" standalone="no"?>
<!DOCTYPE svg PUBLIC "-//W3C//DTD SVG 1.1//EN" "http://www.w3.org/Graphics/SVG/1.1/DTD/svg11.dtd">
<svg width="100%" height="100%" viewBox="0 0 233 807" version="1.1" xmlns="http://www.w3.org/2000/svg" xmlns:xlink="http://www.w3.org/1999/xlink" xml:space="preserve" xmlns:serif="http://www.serif.com/" style="fill-rule:evenodd;clip-rule:evenodd;stroke-linejoin:round;stroke-miterlimit:2;">
    <g transform="matrix(1,0,0,1,-2372,-3010)">
        <g transform="matrix(1,0,0,1,-32.1465,-576.918)">
            <g id="Truck---Left-Rear-Wheels" serif:id="Truck - Left Rear Wheels">
                <g id="Truck---Wheel" serif:id="Truck - Wheel" transform="matrix(0.537064,0,0,0.648846,2129.01,3488.28)">
                    <g transform="matrix(1,0,0,1,-117.006,-1074.82)">
                        <path d="M1061.77,1971.78C1061.77,1922.49 1013.42,1882.47 953.866,1882.47L738.065,1882.47C678.513,1882.47 630.164,1922.49 630.164,1971.78L630.164,2379.92C630.164,2429.21 678.513,2469.23 738.065,2469.23L953.866,2469.23C1013.42,2469.23 1061.77,2429.21 1061.77,2379.92L1061.77,1971.78Z" style="fill:rgb(44,44,44);"/>
                    </g>
                    <g transform="matrix(0.786432,-0.328433,0.0178082,0.0426415,139.34,1468.83)">
                        <rect x="513.467" y="755.367" width="215.853" height="215.853"/>
                    </g>
                    <g transform="matrix(0.807137,0.331581,-0.0206039,0.0501543,326.894,1052.46)">
                        <rect x="513.467" y="755.367" width="215.853" height="215.853"/>
                    </g>
                    <g transform="matrix(0.786432,-0.328433,0.0178082,0.0426415,139.34,1385.15)">
                        <rect x="513.467" y="755.367" width="215.853" height="215.853"/>
                    </g>
                    <g transform="matrix(0.807137,0.331581,-0.0206039,0.0501543,326.894,968.788)">
                        <rect x="513.467" y="755.367" width="215.853" height="215.853"/>
                    </g>
                    <g transform="matrix(0.786432,-0.328433,0.0178082,0.0426415,139.34,1303.8)">
                        <rect x="513.467" y="755.367" width="215.853" height="215.853"/>
                    </g>
                    <g transform="matrix(0.807137,0.331581,-0.0206039,0.0501543,326.894,887.438)">
                        <rect x="513.467" y="755.367" width="215.853" height="215.853"/>
                    </g>
                    <g transform="matrix(0.786432,-0.328433,0.0178082,0.0426415,139.34,1221.67)">
                        <rect x="513.467" y="755.367" width="215.853" height="215.853"/>
                    </g>
                    <g transform="matrix(0.807137,0.331581,-0.0206039,0.0501543,326.894,805.304)">
                        <rect x="513.467" y="755.367" width="215.853" height="215.853"/>
                    </g>
                    <g transform="matrix(0.786432,-0.328433,0.0178082,0.0426415,139.34,1139.68)">
                        <rect x="513.467" y="755.367" width="215.853" height="215.853"/>
                    </g>
                    <g transform="matrix(0.807137,0.331581,-0.0206039,0.0501543,326.894,723.313)">
                        <rect x="513.467" y="755.367" width="215.853" height="215.853"/>
                    </g>
                    <g transform="matrix(0.786432,-0.328433,0.0178082,0.0426415,139.34,1056.91)">
                        <rect x="513.467" y="755.367" width="215.853" height="215.853"/>
                    </g>
                    <g transform="matrix(0.807137,0.331581,-0.0206039,0.0501543,326.894,640.547)">
                        <rect x="513.467" y="755.367" width="215.853" height="215.853"/>
                    </g>
                </g>
                <g id="Truck---Wheel1" serif:id="Truck - Wheel" transform="matrix(0.537064,0,0,0.648846,2128.58,3063.21)">
                    <g transform="matrix(1,0,0,1,-117.006,-1074.82)">
                        <path d="M1061.77,1971.78C1061.77,1922.49 1013.42,1882.47 953.866,1882.47L738.065,1882.47C678.513,1882.47 630.164,1922.49 630.164,1971.78L630.164,2379.92C630.164,2429.21 678.513,2469.23 738.065,2469.23L953.866,2469.23C1013.42,2469.23 1061.77,2429.21 1061.77,2379.92L1061.77,1971.78Z" style="fill:rgb(44,44,44);"/>
                    </g>
                    <g transform="matrix(0.786432,-0.328433,0.0178082,0.0426415,139.34,1468.83)">
                        <rect x="513.467" y="755.367" width="215.853" height="215.853"/>
                    </g>
                    <g transform="matrix(0.807137,0.331581,-0.0206039,0.0501543,326.894,1052.46)">
                        <rect x="513.467" y="755.367" width="215.853" height="215.853"/>
                    </g>
                    <g transform="matrix(0.786432,-0.328433,0.0178082,0.0426415,139.34,1385.15)">
                        <rect x="513.467" y="755.367" width="215.853" height="215.853"/>
                    </g>
                    <g transform="matrix(0.807137,0.331581,-0.0206039,0.0501543,326.894,968.788)">
                        <rect x="513.467" y="755.367" width="215.853" height="215.853"/>
                    </g>
                    <g transform="matrix(0.786432,-0.328433,0.0178082,0.0426415,139.34,1303.8)">
                        <rect x="513.467" y="755.367" width="215.853" height="215.853"/>
                    </g>
                    <g transform="matrix(0.807137,0.331581,-0.0206039,0.0501543,326.894,887.438)">
                        <rect x="513.467" y="755.367" width="215.853" height="215.853"/>
                    </g>
                    <g transform="matrix(0.786432,-0.328433,0.0178082,0.0426415,139.34,1221.67)">
                        <rect x="513.467" y="755.367" width="215.853" height="215.853"/>
                    </g>
                    <g transform="matrix(0.807137,0.331581,-0.0206039,0.0501543,326.894,805.304)">
                        <rect x="513.467" y="755.367" width="215.853" height="215.853"/>
                    </g>
                    <g transform="matrix(0.786432,-0.328433,0.0178082,0.0426415,139.34,1139.68)">
                        <rect x="513.467" y="755.367" width="215.853" height="215.853"/>
                    </g>
                    <g transform="matrix(0.807137,0.331581,-0.0206039,0.0501543,326.894,723.313)">
                        <rect x="513.467" y="755.367" width="215.853" height="215.853"/>
                    </g>
                    <g transform="matrix(0.786432,-0.328433,0.0178082,0.0426415,139.34,1056.91)">
                        <rect x="513.467" y="755.367" width="215.853" height="215.853"/>
                    </g>
                    <g transform="matrix(0.807137,0.331581,-0.0206039,0.0501543,326.894,640.547)">
                        <rect x="513.467" y="755.367" width="215.853" height="215.853"/>
                    </g>
                </g>
            </g>
        </g>
    </g>
</svg>
