<?xml version="1.0" encoding="UTF-8" standalone="no"?>
<!DOCTYPE svg PUBLIC "-//W3C//DTD SVG 1.1//EN" "http://www.w3.org/Graphics/SVG/1.1/DTD/svg11.dtd">
<svg width="100%" height="100%" viewBox="0 0 394 221" version="1.1" xmlns="http://www.w3.org/2000/svg" xmlns:xlink="http://www.w3.org/1999/xlink" xml:space="preserve" xmlns:serif="http://www.serif.com/" style="fill-rule:evenodd;clip-rule:evenodd;stroke-linejoin:round;stroke-miterlimit:2;">
    <g transform="matrix(1,0,0,1,-2275,-3114)">
        <g transform="matrix(1.78134,0,0,1.64606,565.669,-391.082)">
            <g id="Mosnter---Suspension-Rear-Left" serif:id="Mosnter - Suspension Rear Left">
                <g transform="matrix(0.561375,0,0,1.18152,-596.277,-3147.77)">
                    <path d="M3164.63,4514.93C3164.63,4510.63 3157.83,4507.13 3149.46,4507.13L2797.98,4507.13C2789.61,4507.13 2782.81,4510.63 2782.81,4514.93L2782.81,4530.53C2782.81,4534.84 2789.61,4538.33 2797.98,4538.33L3149.46,4538.33C3157.83,4538.33 3164.63,4534.84 3164.63,4530.53L3164.63,4514.93Z" style="fill:rgb(136,136,136);"/>
                </g>
                <g transform="matrix(0.542247,-0.157235,0.145295,0.58681,-1204.9,-18.6134)">
                    <path d="M3164.63,4514.93C3164.63,4510.63 3161.13,4507.13 3156.83,4507.13L2790.61,4507.13C2786.31,4507.13 2782.81,4510.63 2782.81,4514.93L2782.81,4530.53C2782.81,4534.84 2786.31,4538.33 2790.61,4538.33L3156.83,4538.33C3161.13,4538.33 3164.63,4534.84 3164.63,4530.53L3164.63,4514.93Z" style="fill:rgb(136,136,136);"/>
                </g>
                <g transform="matrix(0.542247,0.157235,-0.145295,0.58681,109.36,-896.325)">
                    <path d="M3164.63,4514.93C3164.63,4510.63 3161.13,4507.13 3156.83,4507.13L2790.61,4507.13C2786.31,4507.13 2782.81,4510.63 2782.81,4514.93L2782.81,4530.53C2782.81,4534.84 2786.31,4538.33 2790.61,4538.33L3156.83,4538.33C3161.13,4538.33 3164.63,4534.84 3164.63,4530.53L3164.63,4514.93Z" style="fill:rgb(136,136,136);"/>
                </g>
            </g>
        </g>
    </g>
</svg>
